{"title":"Room 6 2006 DVDRip Xvid BigPerm LKRG","uid":6917917,"size":915944894,"categoryP":"video","categoryS":"movies","magnet":"?xt=urn:btih:f17aab1c7e35dcd03f9b0e131ce4fb13b01119b6&amp;dn=Room+6+2006+DVDRip+Xvid+BigPerm+LKRG&amp;tr=udp%3A%2F%2Ftracker.openbittorrent.com%3A80&amp;tr=udp%3A%2F%2Fopen.demonii.com%3A1337&amp;tr=udp%3A%2F%2Ftracker.coppersurfer.tk%3A6969&amp;tr=udp%3A%2F%2Fexodus.desync.com%3A6969","seeders":1,"leechers":1,"uploader":".BONE.","files":2,"time":1325097765,"description":"PLOT\n\nA young woman's world is turned upside down after a tragic accident steals away her boyfriend. The walls\nof reality continue to crumble as the troubled woman and a fellow victim try to track down their loved\nones at a mysterious hospital which should not exist.\n &lt;a href=&quot;\nhttp://www.imdb.com/title/tt0451187/&quot; rel=&quot;nofollow&quot; target=&quot;_NEW&quot;&gt;\nhttp://www.imdb.com/title/tt0451187/&lt;/a&gt;\n\nEncoded By .......: BigPerm\nRuntime ..........: 1h 33mn\nFile Size ........: 874 MB\nResolution .......: 640 x 352\nIMDb URL .........: http://www.imdb.com/title/tt0451187/\nGenre ............: Horror,Mystery,Thriller\nLanguage .........: English\nSubtitles ........: None\nVideo\nID : 0\nFormat : MPEG-4 Visual\nFormat profile : Advanced Simple@L5\nFormat settings, BVOP : Yes\nFormat settings, QPel : No\nFormat settings, GMC : No warppoints\nFormat settings, Matrix : Default (H.263)\nMuxing mode : Packed bitstream\nCodec ID : XVID\nCodec ID/Hint : XviD\nDuration : 1h 33mn\nBit rate : 846 Kbps\nWidth : 640 pixels\nHeight : 352 pixels\nDisplay aspect ratio : 16:9\nFrame rate : 23.976 fps\nColor space : YUV\nChroma subsampling : 4:2:0\nBit depth : 8 bits\nScan type : Progressive\nCompression mode : Lossy\nBits/(Pixel*Frame) : 0.157\nStream size : 567 MiB (65%)\nWriting library : XviD 1.2.1 (UTC 2008-12-04)\nAudio\nID : 1\nFormat : AC-3\nFormat/Info : Audio Coding 3\nMode extension : CM (complete main)\nCodec ID : 2000\nDuration : 1h 33mn\nBit rate mode : Constant\nBit rate : 448 Kbps\nChannel(s) : 6 channels\nChannel positions : Front: L C R, Side: L R, LFE\nSampling rate : 48.0 KHz\nBit depth : 16 bits\nCompression mode : Lossy\nStream size : 300 MiB (34%)\nAlignment : Split accross interleaves\nInterleave, duration : 42 ms (1.00 video frame)\nInterleave, preload duration : 500 ms\n &lt;a href=&quot;\nhttp://www.shotpix.com/images/96510670363255431988.png&quot; rel=&quot;nofollow&quot; target=&quot;_NEW&quot;&gt;\nhttp://www.shotpix.com/images/96510670363255431988.png&lt;/a&gt;\n &lt;a href=&quot;\nhttp://www.shotpix.com/images/95703523624042177990.png&quot; rel=&quot;nofollow&quot; target=&quot;_NEW&quot;&gt;\nhttp://www.shotpix.com/images/95703523624042177990.png&lt;/a&gt;\n &lt;a href=&quot;\nhttp://www.shotpix.com/images/23345498410238173221.png&quot; rel=&quot;nofollow&quot; target=&quot;_NEW&quot;&gt;\nhttp://www.shotpix.com/images/23345498410238173221.png&lt;/a&gt;\n &lt;a href=&quot;\nhttp://www.shotpix.com/images/84903931616954315235.png&quot; rel=&quot;nofollow&quot; target=&quot;_NEW&quot;&gt;\nhttp://www.shotpix.com/images/84903931616954315235.png&lt;/a&gt;\n &lt;a href=&quot;\nhttp://www.shotpix.com/images/82666022817287384694.png&quot; rel=&quot;nofollow&quot; target=&quot;_NEW&quot;&gt;\nhttp://www.shotpix.com/images/82666022817287384694.png&lt;/a&gt;","torrent":{"xt":"urn:btih:f17aab1c7e35dcd03f9b0e131ce4fb13b01119b6","amp;dn":"Room+6+2006+DVDRip+Xvid+BigPerm+LKRG","amp;tr":["udp%3A%2F%2Ftracker.openbittorrent.com%3A80","udp%3A%2F%2Fopen.demonii.com%3A1337","udp%3A%2F%2Ftracker.coppersurfer.tk%3A6969","udp%3A%2F%2Fexodus.desync.com%3A6969"],"infoHash":"f17aab1c7e35dcd03f9b0e131ce4fb13b01119b6","infoHashBuffer":{"type":"Buffer","data":[241,122,171,28,126,53,220,208,63,155,14,19,28,228,251,19,176,17,25,182]},"announce":[],"urlList":[]}}